<?xml version="1.0" encoding="iso-8859-1"?>
<!-- Generator: Adobe Illustrator 20.0.0, SVG Export Plug-In . SVG Version: 6.00 Build 0)  -->
<svg xmlns="http://www.w3.org/2000/svg" xmlns:xlink="http://www.w3.org/1999/xlink" version="1.1" id="Layer_1_1_" x="0px" y="0px" viewBox="0 0 64 64" style="enable-background:new 0 0 64 64;" xml:space="preserve" width="512" height="512">

<path style="fill:#E6DFC1;" d="M47.536,51.879C47.195,52.22,47,52.69,47,53.172C47,54.18,47.82,55,48.829,55  c0.488,0,0.948-0.19,1.293-0.535l5.171-5.172l1.414,1.414l-5.171,5.172C50.812,56.602,49.851,57,48.829,57  C46.717,57,45,55.282,45,53.172c0-1.023,0.398-1.984,1.122-2.707l0.809-0.809l-18.446-3.208c-0.37-0.065-0.746,0.037-1.034,0.279  C27.165,46.968,27,47.322,27,47.697c0,0.449,0.241,0.869,0.629,1.095l21.814,12.726c0.37,0.218,0.821,0.231,1.207,0.039  l10.902-5.451C61.691,56.036,61.845,56,62,56h2V44h-8.586L47.536,51.879z"/>
<path style="fill:#E6DFC1;" d="M22,8v0.899C23.956,8.5,25.5,6.956,25.899,5H25C23.346,5,22,6.346,22,8z"/>
<path style="fill:#E6DFC1;" d="M9,22h0.586l3.707-3.707C13.48,18.105,13.735,18,14,18h6V8H2v13h6C8.552,21,9,21.447,9,22z"/>
<path style="fill:#367CCC;" d="M23.447,3.272C22.897,2.494,21.997,2,21,2H5C3.346,2,2,3.346,2,5v1h18.424  C20.991,4.707,22.095,3.718,23.447,3.272z"/>
<rect x="2" y="23" style="fill:#367CCC;" width="5" height="10"/>
<path style="fill:#E6DFC1;" d="M20.076,28.383c-0.155-0.374-0.069-0.804,0.217-1.09l4-4C24.48,23.105,24.735,23,25,23h6.5  c0.827,0,1.5-0.673,1.5-1.5S32.327,20,31.5,20H14.414l-3.707,3.707C10.52,23.895,10.265,24,10,24H9v8h17.638l3.6-3H21  C20.596,29,20.231,28.757,20.076,28.383z"/>
<path style="fill:#E6DFC1;" d="M8,35H2v2h22v-3H9C9,34.553,8.552,35,8,35z"/>
<path style="fill:#367CCC;" d="M2,40c0,1.654,1.346,3,3,3h16c1.654,0,3-1.346,3-3v-1H2V40z"/>
<path style="fill:#E6DFC1;" d="M58.101,27H59c1.654,0,3-1.346,3-3v-0.899C60.044,23.5,58.5,25.044,58.101,27z"/>
<path style="fill:#E6DFC1;" d="M59,5h-0.899C58.5,6.956,60.044,8.5,62,8.899V8C62,6.346,60.654,5,59,5z"/>
<path style="fill:#CC5636;" d="M56.08,5H27.92c-0.441,3.059-2.861,5.479-5.92,5.92V18h9.5c1.93,0,3.5,1.57,3.5,3.5S33.43,25,31.5,25  h-6.086l-2,2H33h23.08c0.441-3.059,2.861-5.479,5.92-5.92V10.92C58.941,10.479,56.521,8.059,56.08,5z M45,13h-2v-0.5  c0-0.827-0.673-1.5-1.5-1.5S40,11.673,40,12.5v1c0,0.827,0.673,1.5,1.5,1.5c1.93,0,3.5,1.57,3.5,3.5v1c0,1.58-0.559,2.903-2,3.337  V25h-2v-2.163c-1.441-0.434-3-1.757-3-3.337V19h2v0.5c0,0.827,0.673,1.5,1.5,1.5s1.5-0.673,1.5-1.5v-1c0-0.827-0.673-1.5-1.5-1.5  c-1.93,0-3.5-1.57-3.5-3.5v-1c0-1.58,1.559-2.903,3-3.337V7h2v2.163c1.441,0.434,2,1.757,2,3.337V13z"/>
<path style="fill:#1F2833;" d="M59,3H25.58C24.796,1.202,23.013,0,21,0H5C2.243,0,0,2.243,0,5v17v12v6c0,2.757,2.243,5,5,5h16  c2.757,0,5-2.243,5-5v-6h1c0.234,0,0.46-0.082,0.64-0.231L33.362,29H59c2.757,0,5-2.243,5-5V8C64,5.243,61.757,3,59,3z M25,5h0.899  C25.5,6.956,23.956,8.5,22,8.899V8C22,6.346,23.346,5,25,5z M2,5c0-1.654,1.346-3,3-3h16c0.997,0,1.897,0.494,2.447,1.272  C22.095,3.718,20.991,4.707,20.424,6H2V5z M2,8h18v10h-6c-0.265,0-0.52,0.105-0.707,0.293L9.586,22H9c0-0.553-0.448-1-1-1H2V8z   M2,23h5v10H2V23z M24,40c0,1.654-1.346,3-3,3H5c-1.654,0-3-1.346-3-3v-1h22V40z M24,37H2v-2h6c0.552,0,1-0.447,1-1h15V37z   M26.638,32H9v-8h1c0.265,0,0.52-0.105,0.707-0.293L14.414,20H31.5c0.827,0,1.5,0.673,1.5,1.5S32.327,23,31.5,23H25  c-0.265,0-0.52,0.105-0.707,0.293l-4,4c-0.286,0.286-0.372,0.716-0.217,1.09S20.596,29,21,29h9.238L26.638,32z M62,24  c0,1.654-1.346,3-3,3h-0.899c0.399-1.956,1.943-3.5,3.899-3.899V24z M62,21.08c-3.059,0.441-5.479,2.861-5.92,5.92H33h-9.586l2-2  H31.5c1.93,0,3.5-1.57,3.5-3.5S33.43,18,31.5,18H22v-7.08c3.059-0.441,5.479-2.861,5.92-5.92h28.16  c0.441,3.059,2.861,5.479,5.92,5.92V21.08z M62,8.899C60.044,8.5,58.5,6.956,58.101,5H59c1.654,0,3,1.346,3,3V8.899z"/>
<path style="fill:#1F2833;" d="M43,9.163V7h-2v2.163c-1.441,0.434-3,1.757-3,3.337v1c0,1.93,1.57,3.5,3.5,3.5  c0.827,0,1.5,0.673,1.5,1.5v1c0,0.827-0.673,1.5-1.5,1.5S40,20.327,40,19.5V19h-2v0.5c0,1.58,1.559,2.903,3,3.337V25h2v-2.163  c1.441-0.434,2-1.757,2-3.337v-1c0-1.93-1.57-3.5-3.5-3.5c-0.827,0-1.5-0.673-1.5-1.5v-1c0-0.827,0.673-1.5,1.5-1.5  s1.5,0.673,1.5,1.5V13h2v-0.5C45,10.92,44.441,9.597,43,9.163z"/>
<path style="fill:#1F2833;" d="M54.293,42.293l-5.632,5.633l-19.832-3.449c-0.954-0.165-1.924,0.096-2.664,0.719  C25.424,45.818,25,46.73,25,47.697c0,1.158,0.622,2.239,1.622,2.823l21.814,12.726c0.51,0.297,1.078,0.446,1.646,0.446  c0.5,0,1-0.115,1.462-0.347L62.236,58H64v-1v-1h-2c-0.155,0-0.309,0.036-0.447,0.105L50.65,61.557  c-0.385,0.192-0.837,0.179-1.207-0.039L27.629,48.792C27.241,48.566,27,48.146,27,47.697c0-0.375,0.165-0.729,0.452-0.971  c0.288-0.242,0.664-0.345,1.034-0.279l18.446,3.208l-0.809,0.809C45.398,51.188,45,52.148,45,53.172C45,55.282,46.717,57,48.829,57  c1.022,0,1.983-0.398,2.707-1.121l5.171-5.172l-1.414-1.414l-5.171,5.172C49.776,54.81,49.317,55,48.829,55  C47.82,55,47,54.18,47,53.172c0-0.481,0.195-0.952,0.536-1.293L55.414,44H64v-1v-1h-9C54.735,42,54.48,42.105,54.293,42.293z"/>
<rect x="47" y="31" style="fill:#1F2833;" width="2" height="2"/>
<rect x="47" y="35" style="fill:#1F2833;" width="2" height="2"/>
<rect x="51" y="31" style="fill:#1F2833;" width="2" height="2"/>
<rect x="43" y="31" style="fill:#1F2833;" width="2" height="2"/>
<rect x="43" y="35" style="fill:#1F2833;" width="2" height="2"/>
<rect x="43" y="39" style="fill:#1F2833;" width="2" height="2"/>
<rect x="39" y="31" style="fill:#1F2833;" width="2" height="2"/>
<rect x="39" y="35" style="fill:#1F2833;" width="2" height="2"/>
<rect x="35" y="31" style="fill:#1F2833;" width="2" height="2"/>
</svg>
